<svg width="216" height="216" viewBox="0 0 216 216" fill="none" xmlns="http://www.w3.org/2000/svg">
<g clip-path="url(#clip0_230_333)">
<path d="M72 63V27M144 63V27M61 78.5H108H153M45 189H171C180.941 189 189 180.941 189 171V63C189 53.0589 180.941 45 171 45H45C35.0589 45 27 53.0589 27 63V171C27 180.941 35.0589 189 45 189Z" stroke="#203F99" stroke-width="9" stroke-linecap="round" stroke-linejoin="round"/>
<path d="M44.8885 131.814H50.0005V135H40.4605V131.994L45.5005 125.424H40.4605V122.256H50.0005V125.262L44.8885 131.814ZM60.4204 133.074H56.1724L55.5424 135H51.3484L56.0104 122.256H60.6184L65.2624 135H61.0504L60.4204 133.074ZM59.4484 130.068L58.2964 126.522L57.1444 130.068H59.4484ZM75.1523 128.466C75.9203 128.646 76.5143 129.018 76.9343 129.582C77.3663 130.134 77.5823 130.776 77.5823 131.508C77.5823 132.624 77.2103 133.488 76.4663 134.1C75.7343 134.7 74.6783 135 73.2983 135H66.6203V122.256H73.1183C74.4143 122.256 75.4343 122.538 76.1783 123.102C76.9223 123.666 77.2943 124.488 77.2943 125.568C77.2943 126.312 77.0963 126.942 76.7003 127.458C76.3163 127.962 75.8003 128.298 75.1523 128.466ZM70.6163 127.224H72.1643C72.5243 127.224 72.7883 127.152 72.9563 127.008C73.1363 126.864 73.2263 126.642 73.2263 126.342C73.2263 126.03 73.1363 125.802 72.9563 125.658C72.7883 125.502 72.5243 125.424 72.1643 125.424H70.6163V127.224ZM72.4343 131.796C72.7943 131.796 73.0583 131.73 73.2263 131.598C73.4063 131.454 73.4963 131.226 73.4963 130.914C73.4963 130.302 73.1423 129.996 72.4343 129.996H70.6163V131.796H72.4343ZM84.361 135.126C82.837 135.126 81.577 134.772 80.581 134.064C79.597 133.344 79.063 132.294 78.979 130.914H83.227C83.287 131.646 83.611 132.012 84.199 132.012C84.415 132.012 84.595 131.964 84.739 131.868C84.895 131.76 84.973 131.598 84.973 131.382C84.973 131.082 84.811 130.842 84.487 130.662C84.163 130.47 83.659 130.254 82.975 130.014C82.159 129.726 81.481 129.444 80.941 129.168C80.413 128.892 79.957 128.49 79.573 127.962C79.189 127.434 79.003 126.756 79.015 125.928C79.015 125.1 79.225 124.398 79.645 123.822C80.077 123.234 80.659 122.79 81.391 122.49C82.135 122.19 82.969 122.04 83.893 122.04C85.453 122.04 86.689 122.4 87.601 123.12C88.525 123.84 89.011 124.854 89.059 126.162H84.757C84.745 125.802 84.655 125.544 84.487 125.388C84.319 125.232 84.115 125.154 83.875 125.154C83.707 125.154 83.569 125.214 83.461 125.334C83.353 125.442 83.299 125.598 83.299 125.802C83.299 126.09 83.455 126.33 83.767 126.522C84.091 126.702 84.601 126.924 85.297 127.188C86.101 127.488 86.761 127.776 87.277 128.052C87.805 128.328 88.261 128.712 88.645 129.204C89.029 129.696 89.221 130.314 89.221 131.058C89.221 131.838 89.029 132.54 88.645 133.164C88.261 133.776 87.703 134.256 86.971 134.604C86.239 134.952 85.369 135.126 84.361 135.126ZM90.715 128.61C90.715 127.35 90.967 126.228 91.471 125.244C91.987 124.26 92.719 123.498 93.667 122.958C94.615 122.406 95.731 122.13 97.015 122.13C98.119 122.13 99.103 122.34 99.967 122.76C100.843 123.168 101.551 123.75 102.091 124.506C102.643 125.262 103.009 126.144 103.189 127.152H98.977C98.785 126.732 98.509 126.408 98.149 126.18C97.801 125.94 97.399 125.82 96.943 125.82C96.271 125.82 95.737 126.072 95.341 126.576C94.957 127.08 94.765 127.758 94.765 128.61C94.765 129.462 94.957 130.14 95.341 130.644C95.737 131.148 96.271 131.4 96.943 131.4C97.399 131.4 97.801 131.286 98.149 131.058C98.509 130.818 98.785 130.488 98.977 130.068H103.189C103.009 131.076 102.643 131.958 102.091 132.714C101.551 133.47 100.843 134.058 99.967 134.478C99.103 134.886 98.119 135.09 97.015 135.09C95.731 135.09 94.615 134.82 93.667 134.28C92.719 133.728 91.987 132.96 91.471 131.976C90.967 130.992 90.715 129.87 90.715 128.61ZM116.868 122.256V135H112.872V130.032H109.074V135H105.078V122.256H109.074V126.846H112.872V122.256H116.868ZM123.112 125.442V127.008H127.072V130.014H123.112V131.814H127.612V135H119.116V122.256H127.612V125.442H123.112ZM134.878 122.256C136.21 122.256 137.374 122.526 138.37 123.066C139.378 123.606 140.152 124.356 140.692 125.316C141.232 126.276 141.502 127.368 141.502 128.592C141.502 129.804 141.232 130.896 140.692 131.868C140.152 132.84 139.378 133.608 138.37 134.172C137.374 134.724 136.21 135 134.878 135H129.568V122.256H134.878ZM134.518 131.436C135.418 131.436 136.132 131.19 136.66 130.698C137.188 130.206 137.452 129.504 137.452 128.592C137.452 127.68 137.188 126.978 136.66 126.486C136.132 125.994 135.418 125.748 134.518 125.748H133.564V131.436H134.518ZM147.301 122.256V129.438C147.301 130.026 147.427 130.494 147.679 130.842C147.943 131.178 148.363 131.346 148.939 131.346C149.515 131.346 149.941 131.178 150.217 130.842C150.493 130.494 150.631 130.026 150.631 129.438V122.256H154.609V129.438C154.609 130.65 154.357 131.688 153.853 132.552C153.349 133.404 152.659 134.046 151.783 134.478C150.907 134.91 149.929 135.126 148.849 135.126C147.769 135.126 146.809 134.91 145.969 134.478C145.141 134.046 144.493 133.404 144.025 132.552C143.557 131.7 143.323 130.662 143.323 129.438V122.256H147.301ZM160.778 131.976H164.63V135H156.782V122.256H160.778V131.976ZM170.334 125.442V127.008H174.294V130.014H170.334V131.814H174.834V135H166.338V122.256H174.834V125.442H170.334Z" fill="#203F99"/>
</g>
<defs>
<clipPath id="clip0_230_333">
<path d="M0 0L216 0V216H0L0 0Z" fill="white"/>
</clipPath>
</defs>
</svg>
